<svg xmlns="http://www.w3.org/2000/svg" width="1828" height="1950.5" viewBox="0 0 1828 1950.5">
  <title>tiger-icon</title>
  <g>
    <path d="M931.6,1950.5H895.8c-2.3-.3-4.5-.9-6.8-1.1-18.6-1.7-37.3-2.7-55.7-5.2-49.7-6.8-97.2-20.9-142-43.6-35.5-18-67.4-40.8-93.4-71.3-19.7-23.3-34.2-49.3-40.7-79.5-1.5-7-2.4-14.2-3.6-21.3a9.9,9.9,0,0,0-2.5-.6c-3.6.2-7.3.3-10.9.6a459.7,459.7,0,0,1-115.4-5.7c-98.8-17.5-182.3-63.7-251.7-135.6-45-46.5-79.6-100.1-106.2-158.9-38.3-84.6-58.2-173.7-64.4-266-3.2-46.6-3.6-93.2.3-139.8,1-11.6,1.9-23.2,3.2-34.8,5.8-48.2,13.9-95.9,25.6-143A1149,1149,0,0,1,137,572.9c6.2-11.6,12.9-23,19.3-34.2a9.8,9.8,0,0,0-.9-1.8l-8.4-9.3c-21.6-23.7-39.6-49.8-51.9-79.7A541.7,541.7,0,0,1,55,263.5c-1.5-36.9,1.3-73.7,13.2-109C83.3,109.6,106,69.2,141.9,37.4c44-38.9,94.2-45.9,148.8-28.2,18.9,6.1,34.6,17.8,49.2,30.7,31.5,27.7,62.7,55.9,93.6,84.3,21.4,19.7,42.2,40,63.2,60,1.9,1.8,3.9,3.3,5.7,4.8,9.1-4.6,17.6-9.1,26.1-13.3,64-31.7,131-53,202.3-60.4,59.9-6.2,119-2.1,177.1,14.1a20.8,20.8,0,0,0,12.1.1A439.8,439.8,0,0,1,1021.9,113a502.8,502.8,0,0,1,116.8,8.2c58.6,10.8,114,30.6,167,57.5l20.6,10.6,43-40.6c24.2-22.8,48-45.9,72.6-68.2q30.3-27.3,62.3-52.8c8.3-6.7,18.2-12,28.1-16.4,26.8-11.7,54.9-13.4,83.8-8.6,27.3,4.4,50.4,16.7,70.6,35.1a215.6,215.6,0,0,1,29,31.4c31.3,42.4,50.9,89.5,55.9,142.2a406.3,406.3,0,0,1-.8,86.1,641.1,641.1,0,0,1-22.3,108c-13.1,43.7-32.6,84-63.7,118l-13.2,14.6c2.5,4.6,4.8,8.9,7.3,13.2,31.9,54.8,58.2,112.2,80.2,171.6,25,67.8,43.9,137.2,55,208.6,4.2,26.6,7.3,53.4,10.2,80.2,1.5,13.6,1.4,27.4,2.2,41,.4,8.3,1,16.5,1.5,24.8v35.8c-.4,4-1.1,8.1-1.1,12.2-.2,37.2-3.8,74-9.5,110.6-10.1,65.7-27.8,129.1-55.1,189.7-32.3,71.8-75.7,135.7-135,188-97.1,85.6-210.8,122.8-339.6,114.7-4.3-.3-8.7,0-13.2,0-.2,1.1-.5,2.1-.6,3.1-3.5,32.5-15.9,61.4-35.5,87.4-22.7,30.1-51.3,53.4-83.8,72-65.5,37.3-136.7,54.5-211.5,58.3C939.3,1949.5,935.4,1950.1,931.6,1950.5ZM956.9,278.7c.9.1,1.4.4,1.9.3q3-.6,6-1.5c49.3-14.1,99.3-18.3,150.1-10.9,34.9,5.1,68,15.9,98.5,34a200.8,200.8,0,0,1,36.6,27.6c11.9,11.3,15.9,25.3,12.2,41.1-4.6,20.2-33.1,40.3-60,23-5.4-3.5-10.1-8.1-15.2-12.1-28.8-22.3-62.3-32.2-98-35.5a280.4,280.4,0,0,0-86.6,6.1,270.4,270.4,0,0,0-46.3,14.8V507.9l8.1-2.4c36.8-11.1,74.3-16.5,112.8-11.6,19.2,2.4,37.6,7.6,54.5,17.3,9.5,5.4,18.2,11.9,25.1,20.6,10.8,13.5,11.8,33.4,2.5,47.2-14.2,21-40.8,24.7-60.3,7.9-6.8-5.7-14.1-9.6-22.7-11.1a156,156,0,0,0-21.5-2.7c-23.9-1.1-47.1,3.1-69.6,10.5-10.1,3.3-19.9,7.3-30,11.1v11.7q-.2,40.5-.4,80.9a73.7,73.7,0,0,1-1.2,13.2c-4.7,25-31.9,39.4-55.1,29.1-16-7.2-24.2-20.1-24.5-37.5-.5-28.2-.6-56.5-.8-84.8-.1-4.1,0-8.1,0-12.3-35.3-15.6-70.8-24.7-108.8-21.4-13.5,1.2-26,5.3-36.8,14.7s-25.9,11.9-40.2,5.9c-24.5-10.2-32.3-40.6-16.2-61.8,6.9-9,15.9-15.6,25.6-21.2,20.9-12,43.8-17.1,67.6-18.7,28.2-1.8,55.9,1.5,83.2,8.5,8.2,2,16.3,4.4,24.6,6.7V365.8l-4-2c-49.3-18.9-99.9-25.3-152-15.8-31.3,5.7-60,17.7-83.8,39.8a53.6,53.6,0,0,1-8.3,5.8c-22.2,12.4-50.8.9-57.7-23.5-4.5-15.8-.5-30.1,11.4-41.3a228.5,228.5,0,0,1,26.6-21.4c40.9-27.6,86.7-40.4,135.3-43.7a355.2,355.2,0,0,1,123.8,13.8c2.4.7,4.8,1.1,7.4,1.8V203.4a47.6,47.6,0,0,0-5.8-1.6A403.5,403.5,0,0,0,725,197.1c-51.8,7.1-101.1,22.7-148.3,44.9-68,31.8-128.3,74.9-183.1,126.1-65.8,61.5-120.6,132-166.5,209.3a1047.8,1047.8,0,0,0-95.1,210c-4.4,13.4-8.4,27-12.6,40.5a6.6,6.6,0,0,0,4.2-2.3c26.4-30.1,55.6-57.3,86.8-82.5,6.5-5.2,13.4-9.6,21.7-11.7a39.5,39.5,0,0,1,46.4,23.3c7,17.9,2.5,35-12.6,47.5-12.5,10.4-25.3,20.7-37.3,31.7-25.6,23.2-48.7,48.8-70.2,75.9-27,34.1-50,70.6-67.4,110.5a32.8,32.8,0,0,0-2.7,12,50.2,50.2,0,0,1-4.7,20.2,19.6,19.6,0,0,0-1.8,6.7c-.5,6.4-.8,12.9-.9,19.4a868.8,868.8,0,0,0,7.5,131.9c.8,6.6,2.1,13.1,3.2,19.7a18.1,18.1,0,0,0,4.3-7.1l16.7-44.4c12.2-32,25.8-63.3,41.9-93.6,30.2-56.8,69.5-106.8,113.6-153.2A77.3,77.3,0,0,1,282.4,920c10.8-7,22.6-8.8,35-4.9,29.4,9.2,37.4,46.7,14.7,67.9-7.2,6.7-14.1,13.8-20.8,21s-10.5,12.1-15.8,18.2a538.2,538.2,0,0,0-91.6,146.4c-13.4,32-24.9,64.8-37.8,97.1-14.2,35.6-21.8,72.9-29.5,110.2a21.7,21.7,0,0,0,1.7,15c4.9,9.5,9.2,19.2,14,28.6,27.8,54.1,63.7,102,110.4,141.3,1.9,1.6,4,3,6.9,5.3-.3-5.9-.9-10.5-.8-15.1.5-25.7.9-51.3,1.9-77a234,234,0,0,1,3.3-32.4c5.2-29.4,10.6-58.7,16.7-87.8,7.6-36.4,17.4-72.2,33-106s32.3-64.9,48.7-97.3a47.5,47.5,0,0,1,7.3-10c16.2-17.4,43.8-14.2,57.8.7,11.2,12,14,30,6.5,45.7-5.1,10.5-10.8,20.6-16.2,31-15.1,28.9-30.7,57.7-40.6,89-19.4,61.7-33.1,124.6-37,189.5-2.4,39.4,1.2,78.1,7.6,116.8.9,5,3.3,8.4,8.5,10s12.2,4.4,18.3,6.5c48.8,16.5,99.1,21.7,150.3,18.6,5-.3,10-1.1,14.9-1.7.1-1,.2-1.3.1-1.5l-1.5-2.7c-34.5-50.9-58.2-106.1-65.6-167.7a290.2,290.2,0,0,1,1.4-82.2c4.6-27.9,12.8-55,23.3-81.3,15-37.7,36.1-72.3,56-107.5,10.2-18,20.4-36,29.8-54.5,6.4-12.4,11.2-25.6,17.2-38.3,22.5-47.4,41.8-96,51.3-147.9,3.8-20.9,7.8-41.8,10.8-62.8,3.4-24.2-1.7-48-6.5-71.6-4.2-20.4-12.7-38.8-24.4-55.9a181.6,181.6,0,0,0-48.9-48.4c-38.5-25.9-81-40.7-126.5-46.6-21.5-2.8-43.4-2.4-65.1-3.5a71.3,71.3,0,0,1-13.9-1.5c-29.6-7.4-38.1-38.7-24.8-59.4,8.2-12.8,20.4-19.4,35.3-19.5,31.6-.3,63.3.3,94.5,6,44.7,8.2,87.4,22.3,126.6,45.7,31.6,18.9,60.3,41.1,82.2,71.4,19.9,27.7,35.9,57.2,42.8,90.7,4.2,19.8,7.4,39.8,9.7,59.8,1.3,11.2.6,22.8-.2,34.2-1.6,24.6-7,48.6-11.6,72.8-7.6,39.9-18.7,78.7-34.3,116.1-10.6,25.3-22.6,50.1-33.3,75.4s-22.9,48.2-36.5,71.2-26.6,46.2-39.4,69.7-21.5,48.1-28.8,73.7c-9.5,33.4-10.1,66.9-4.2,100.8s20.4,66.8,37.8,97.4a114.5,114.5,0,0,0,15.9,21.9c25,26.4,56.5,37.7,92.4,37.3,25.8-.2,50.9-5.9,75.4-13.7,20.8-6.6,39.1-17.6,55.6-31.9,6.7-5.8,10.6-13.1,13.3-21.5a21.2,21.2,0,0,0-2.9-1.8c-20.3-9.3-35.3-24.4-46.5-43.4-3.6-6-6.8-12.2-10.2-18.3a16.8,16.8,0,0,0-8.1-7.9c-13.8-6.1-27.4-12.5-41-18.7a127.8,127.8,0,0,1-54.2-46.6c-18.4-27.7-21.4-57.1-5.4-86.8,11-20.4,29.2-32.6,51.2-39.1,14.7-4.4,30-6.1,45.3-6.3q29.9-.5,59.9,0c13.2.2,26.4.8,39.6,1.9,16,1.3,32,3.2,48.1,1.1a194.3,194.3,0,0,1,20.1-1.6c31.4-.6,62.8-1.4,94.2-1.3a150.4,150.4,0,0,1,47.4,7.3c49.7,16.3,72,69,48.1,114.7a123.8,123.8,0,0,1-54.5,53.8c-15,7.6-30.5,14.4-45.8,21.3a16.1,16.1,0,0,0-8.5,7.5c-3,5.4-5.9,10.9-9,16.3-11.6,20.3-27.1,36.6-48.8,46.4a10.3,10.3,0,0,0-2.5,1.9c3,7.2,5.8,14.3,11.6,19.3,12.2,10.5,25.1,20.1,39.9,26.8,18.3,8.3,37.6,13.2,57.3,16.9,26.2,4.9,52.4,6.1,78.4-2.5s48.6-24.2,63.1-48.8c18.5-31.2,33.3-63.9,40-99.8,5.2-27.5,6.1-55.2.7-82.7a341.9,341.9,0,0,0-18.1-61c-10.6-26.6-25.2-51.2-39.3-75.9-19.7-34.7-41.2-68.4-55.6-105.9-1.4-3.7-3.1-7.1-4.8-10.6-18.3-38.5-34.8-77.6-46.4-118.7-9.3-32.6-15.7-66-21-99.5a363.5,363.5,0,0,1-4.2-44.1c-.7-18.4,3-36.6,5.7-54.8,7.5-50.5,29.4-94.2,63.2-132,25.5-28.5,56.9-49.1,91-65.5,43.3-20.8,89.1-33.7,137.3-36.9,19.4-1.3,38.9-1.8,58.3-1.7,22.3.1,40,15.6,42.2,36,2.6,23.7-15.8,43.9-40.4,44.4-10.1.3-20.2.2-30.3.4a324,324,0,0,0-118.9,24.5c-25,10.2-48.1,23.7-67.9,41.7-28.6,25.9-47.6,57.9-53.9,96.6-2.6,16.2-6.4,32.2-5.5,48.6a299.5,299.5,0,0,0,4.3,37.8c7.1,41.7,15.2,83.2,31.1,122.6,11.4,28.1,23.9,55.7,36.3,83.4,6.8,15.4,13.6,30.8,21.7,45.6,14.8,27,30.3,53.7,45.8,80.3,20.9,35.9,35.7,74.3,45.5,114.5,11.2,45.6,10.6,91.4.4,137.2-11,49.2-31.9,94-60.3,135.5-.6,1-1,2.1-1.8,3.8,6.4.6,12,1.3,17.7,1.6,23,1.1,46.1,1.1,69.1-1.3a380.8,380.8,0,0,0,98.6-24.4c4.2-1.6,6.4-4.3,6.9-8.4,2.8-18.7,5.8-37.4,7.9-56.2,2.7-25.3.1-50.7-.8-76.1a203.3,203.3,0,0,0-3-30.2c-5.8-31.3-11.6-62.6-18.5-93.7-7.9-35.3-19.2-69.4-35.8-101.7-10.5-20.5-21.1-41-31.6-61.6a120.1,120.1,0,0,1-5.9-12.6c-6.4-18.6,1.7-40.5,17.9-48.3,22.8-11,42.5-3.6,53.9,13.7a79.4,79.4,0,0,1,4.2,7.5l18.5,35.1c23.8,44.5,43.3,90.7,55.2,139.9,8.8,36.5,16.9,73.2,22,110.5,5.5,39.6,6.1,79.5,4.9,119.5a42.8,42.8,0,0,0,.5,5.5c1.8-1.3,2.9-2,3.8-2.8,57.2-47.6,98-107.2,127.7-174.9,1.3-2.8,1.3-6.5.9-9.7-.9-6.4-2.6-12.7-3.9-19-4.7-22.3-8.4-44.9-16.4-66.4-12.6-34-24.8-68.1-37.9-102-18.5-48.1-42.6-93.4-73.7-134.6-19.7-26.1-40.3-51.5-64.3-73.8a39.7,39.7,0,0,1-8.4-47.1,40.1,40.1,0,0,1,42.1-21.5c10.7,1.6,19.6,6.8,27,14.4,10.6,11,20.9,22.4,31,33.8a632.4,632.4,0,0,1,98.1,146.2c17.7,36.4,32,74.2,45.9,112.2,1.2,3.4,2.5,6.8,4.1,10.8,1-1.4,1.4-1.8,1.5-2.3a23.3,23.3,0,0,0,.8-3.8c8.5-53.9,10.9-108.3,9-162.8-.1-3.5-1.5-7-2.4-10.4-1.4-6.1-3.6-12-4.1-18.1a43.7,43.7,0,0,0-3.9-15.6,493,493,0,0,0-59.9-99.8c-29.6-38.3-61.9-73.9-99.8-104.3-5.5-4.3-11-8.7-16.2-13.4-11.4-10.4-16.4-23.2-13-38.5s13.6-26.7,29.6-30.8,27.6,1.3,39.1,10.4a710.3,710.3,0,0,1,86.5,81.6,57.2,57.2,0,0,1,3.9,5.7l1.8-1.3c-.6-2.5-1-5-1.8-7.3-7.2-21.9-13.9-44-21.8-65.7a1024.9,1024.9,0,0,0-112.9-223.6c-47.5-71.2-102.9-135.4-168.4-190.6-59.9-50.6-125.7-91.5-199.7-118.2-45.8-16.6-93-27-141.9-28.8a398,398,0,0,0-89.8,6.5c-5,.9-9.9,2.3-15,3.5ZM1192.6,1706l-8.1,2.4a215.5,215.5,0,0,1-81.3,9.8,367.3,367.3,0,0,1-64.3-10.7c-48.5-12.1-90.8-34.5-123.9-72.9-.2-.3-.9-.3-1.4-.4a5.2,5.2,0,0,0-1.1,1c-21.2,25-47.4,43.2-77.1,56.6s-61.8,20.6-94.3,24.9c-25.6,3.4-51.2,3.1-76.5-2.7-9.5-2.2-18.9-5-28.4-7.6a8.1,8.1,0,0,0-1.2,2.2,42.1,42.1,0,0,0-.5,6.2c-.7,20.3,6.8,38,18.5,54.1,13.5,18.7,30.8,33.5,50.3,45.8,47.6,30,100.3,45.2,155.7,51.8,29.4,3.5,58.9,3.7,88.5,1.9a420,420,0,0,0,106.5-20.5c32.7-10.9,63.4-25.7,90.4-47.3,17.2-13.8,32-29.6,41.5-49.8A74.7,74.7,0,0,0,1192.6,1706ZM1626.3,467.6a183.7,183.7,0,0,0,31.8-49.6,383.9,383.9,0,0,0,21.5-67.2c8.6-38,14.7-76.3,12.9-115.5-1.4-29-7.1-57-20.3-83.1-10.7-21.3-23.4-41-41.8-56.4-6.6-5.6-13.6-10.4-22.2-12.4-23-5.3-44.2-2.7-62.6,13.7-20.1,17.9-40.9,35.1-60.7,53.4-28.9,26.7-57.2,54.1-85.8,81.2a15.8,15.8,0,0,0-1.4,2.5C1487.7,298,1562.5,376.7,1626.3,467.6ZM430.9,233.8l-23.6-22.5c-28.7-27-57.2-54.2-86.3-80.8-14.9-13.6-30.6-26.4-46.4-39a44.8,44.8,0,0,0-17.3-8.3C234,78,212.5,81.1,194.5,98.6,162.7,129.5,144.3,167.3,138,211a291,291,0,0,0-.2,79.1c4.7,37.4,12.3,74.1,25,109.7,7.8,21.8,18,42.4,32.8,60.5,1.9,2.3,4,4.5,6.4,7.2C265.7,376.6,340.6,297.9,430.9,233.8ZM758.5,1385.7c4.2,8.5,11.5,16.4,18.2,19.7,13.1,6.3,26,13,39.5,18.2,23,8.7,39.6,24,51,45.5,2.9,5.4,5.8,10.9,9,16.3,6,10,15.4,14.3,26.6,15a187.7,187.7,0,0,0,22.5,0c11.4-.8,21.1-5.1,27-15.6l9.3-17.1c10.4-18.6,24.6-33.1,44.5-41.7,13.8-5.9,27.3-12.5,41.1-18.4,8.1-3.6,14.1-9.5,19.6-16.2,1-1.2,1.4-3,2.4-5.1-4-.9-7.2-1.9-10.5-2.2-7.7-.7-15.5-1.6-23.2-1.5-28.8.4-57.5.6-86.3,1.9-17.5.8-35.1,2.9-52.7,1.3-7.2-.6-14.4-1.6-21.7-1.7-30.8-.6-61.6-1.2-92.5-1.3C774.7,1382.8,767.1,1384.6,758.5,1385.7Z"/>
    <path d="M557,920.4c-24.4-1.3-43.7-11-56.9-31.7-5.9-9.1-11.1-18.7-14-29.3-6.2-22.7-1.5-42.5,14.7-59.6,18.4-19.3,57.5-32.6,90-11.9,24.3,15.5,38.1,47.4,32.5,76.3s-27.6,49.8-56.5,55.2C563.5,920,560.1,920.1,557,920.4Z"/>
    <path d="M1203.4,849.8c1.2-37.5,28.7-73,71.3-72.3,21,.4,39.4,8.2,54,23.9s18.9,34.6,13.9,55.5a92.9,92.9,0,0,1-20,39.1c-34.4,40.3-94.4,27.9-113.7-19a84.8,84.8,0,0,1-4.2-14.1C1203.8,858.6,1203.8,854.2,1203.4,849.8Z"/>
  </g>
</svg>
